<?xml version="1.0" encoding="UTF-8"?>
<svg id="Layer_1" data-name="Layer 1" xmlns="http://www.w3.org/2000/svg" viewBox="0 0 1587.66 1659.98">
  <defs>
    <style>
      .cls-1 {
        fill: #e1541e;
      }

      .cls-2 {
        fill: #f76205;
      }

      .cls-3 {
        fill: #fa7a29;
      }

      .cls-4 {
        fill: #ea3b07;
      }

      .cls-5 {
        fill: #560c05;
      }
    </style>
  </defs>
  <path class="cls-5" d="M483.66,1518.36c-.4.04-.77.85-1.24.86-.73.03-2.35.18-1.82-.97.62-.36,1.36-1.79,2.21-1.53s1.13.96.85,1.64Z"/>
  <path class="cls-5" d="M465.26,1520.36l-2.37.33c.2-2.39,1.67-2.8,2.37-.33Z"/>
  <g>
    <path class="cls-1" d="M760.9,1364.63l-.12,38.08h59.58s.1-46.71.1-46.71c2.62-.56,4.5-1.86,7.64-1.76l26.1.78.27,127.11-33.87-.33c.32-2.41-.28-7.07-.24-9.81l.61-42.32-60.43-.18.29,37.57c.04,4.87.28,11.65-.15,16.48-4.86,0-9.32,0-13.6-.03l-20.07-.28-.54-15.66.3-112.79,33.48-.18c.68,4.01.66,7,.65,10.03Z"/>
    <path class="cls-1" d="M988.9,1354.41c1.96,1.35,1.87,3.98,1.8,6.16-.21,6.39-.07,12.64.7,19.76-3.55.39-6.58.6-9.57.58l-63.2-.33c-.99,8.45-1.09,15.68,0,23.84l58.83-.22c1.36,0,3.19.1,4.15.93,1.6,1.37,2.22,26.95-2.59,24.36l-60.48-.37c-.85,9.78-.95,18.38,0,28.03l61.84-.26c4.06-.02,8.07.17,13.04.32-.98,6.56,3.27,29.89-4.17,26.08-1.29-2.97-4.64-.63-6.36.05l-98.33-.05c-1.37-2.88-.98-4.92-.98-6.94l.24-114.42c0-3.06-.05-5.44,1.18-7.41l103.9-.13Z"/>
    <path class="cls-1" d="M709.18,1354.58l-.02,26.07-43.8.36.21,77.74-.12,24.45-30.6.34-3.04-.48-.34-31.92.23-70.22c-11.98-.3-22.91-.27-33.85,0-3.02.08-6.01-.11-9.8-.4l.11-25.9,121.03-.04Z"/>
    <path class="cls-1" d="M1290.87,1531.59l-.4,22.34-72.54.19c-.5,8.95-.68,16.64.02,25.09l64.12-.3-.38,24.58-63.65.43c-.9,9.51-.41,17.93-.25,27.41l75.49.16c1.22,3.26,1.01,6,.93,8.57l-.56,17.47-109.39-.04c-.85-2.85-.84-5.1-.84-7.26v-118.69c.34-.93,1.04-2.86,3.16-2.86l101.05.09c2.16,0,2.84,1.73,3.24,2.81Z"/>
    <path class="cls-1" d="M419.71,1544.91c.09,2.54.09,5.97.05,8.86,0,.54-6.85.21-9.2.21l-64.23-.04-.07,24.89,64.11-.04-.06,24.8-64.2.34.24,27.41,75.22.32c.05,9.43.72,17.81-.76,25.95l-107.76-.1c-.76-2.86-.7-5-.7-7.09l.18-121.6,106.61-.12.58,16.22Z"/>
    <path class="cls-1" d="M264.58,1529l33.51-.12c-12.59,35.03-42.79,94.82-57.67,128.46h-34.32c-18.19-43.7-38.7-85.46-58.29-128.21l37.72-.52c3.88,10.55-.91-.98,4.51,12.05,6.6,15.86,25.62,60.27,34.56,77.29"/>
    <path class="cls-1" d="M626.2,1575.63l-.07,54.1,11.59,1.32,56.84.31.07,25.03c-14.3,2.3-29.11,1.31-43.71,1.31l-50.16.02c-3.42,0-8.57,1.13-9.8-2.53l-.12-103.01c0-7.64,1.08-15.41.4-23.41l34.7.12.26,46.73Z"/>
    <path class="cls-1" d="M1097.23,1528.59c11.13,0,23.34,5.6,33.39,10.87,21.71,11.39,32.14,34.28,31.19,58.22-.94,23.71-14.63,40.98-33.85,52.6-1.96,1.19-4.86.9-6.98,1.56-.69.21-2.3.5-1.78,1.52l-2.56.14c-1.14.06-3.3-.17-3.37,1.44-2.06.11-4.87.79-6.93,1.31-1.5.25-4.09-.57-4.74,1.22l-12.88.23h-44.2c-6.15,0-13.08.49-19.14-.29-.64-4.95-.78-10.09-.8-15.88l-.31-102.35c-.01-3.29-.32-6.02.43-10.64l72.53.06ZM1127.27,1587.93c-2.33-17.24-13.56-29.17-30.56-31.79-12.49-1.93-25.35-.27-38.61-.92l.33,75.79,39.85-1.88c20.19-.95,31.69-21.21,28.99-41.19Z"/>
    <path class="cls-1" d="M813.55,1652.19c-40.55,20.2-101.47.04-109.22-48.09-11.07-70.86,80.35-101.81,127.38-56.84,33.26,32.48,23.3,84.49-17.9,104.8l-.26.13ZM816.78,1592.57c.14-29.75-32.05-48.65-58.16-34.87-32.92,17.39-25.25,67.6,11.58,73.96,23.84,4.55,46.88-14.45,46.58-38.8v-.29Z"/>
    <path class="cls-1" d="M1536.21,1529.18c7.02,1.07,17.26,2.8,23.92,6.49,4.13,2.19,8.29,4.8,11.94,7.91,14.5,13.23,16.92,35.76,8.79,53.13-3.83,6.15-9.72,10.72-15.58,15.07-2.08,1.43-3.66,2.93-3.81,4.77-.19,1.58.78,3.46,1.73,4.89,5.27,7.83,11.62,13.81,16.16,21.44,1.99,3.24,3.99,6.71,6.28,9.73,4.41,5.42,1.07,4.4-4.85,4.64-5.17.09-11.21.21-16.53.31-6.93-.09-9.51,1.01-13.46-1.89-4.5-4.17-5.03-6.99-9.68-12.76-2.74-3.75-5.6-7.68-8.35-11.44-1.59-2.18-3.08-4.22-4.28-5.87-2.46-3.17-2.66-4.39-5.24-4.74-5.67-.23-14.45.02-20.74.01-5.7-.31-5.69,3.6-5.41,8.06.35,5.36.97,9.46,1.08,15.2,0,5.84,1.81,14.07-6.75,13.37-5.37.01-17.12-.02-23.2-.04-3.89.15-5.62-1.53-5.52-5.12-.06-11.44.22-103.86.2-121.03.01-1.06-.02-1.76.05-2.15.06-.28.19-.41.53-.48,10.31.17,60.05-.5,72.53.45l.17.03ZM1533.81,1593.62c11.15-1.92,19.29-12.97,16.09-24.05-4.69-18.37-31-15.92-48.66-15.31-3.85.11-3.82,1.09-3.71,5.73,0,6.46,0,14.95,0,21.76,0,3.07,0,5.84,0,7.95,0,3.11-.27,4.42,2.58,4.68,11.12.19,22.43,1.34,33.4-.71l.29-.06Z"/>
    <path class="cls-1" d="M565.59,1561.22c5.89,22.02-3.62,44.19-25.27,53.55,8.82,12.91,16.56,24.37,25.28,35.85,1.86,2.45,4.81,4.33,3.03,7.33l-33.38-.43c-2.03-.07-1.48.18-2.56-.07-.07-.38-.78-2.38-.98-2.71-7.12-11.72-15.69-22.6-24.17-34.05l-27.54.1.8,35.48c-10.88,3.14-22.7.21-34.45,1.26-.76-3.76-.7-5.95-.7-8.6l-.07-112.9c0-2.08.02-4.05.73-7.27l63.91.09c11.13.01,21.74,1.59,31.72,6.86,9.69,5.13,20.66,14.37,23.64,25.5ZM516.67,1593.47c11.36-2.77,16.74-11.86,15.9-21.42-1.97-22.35-35.85-18.09-52.85-17.71v40.22c12.59-.73,25.16,1.79,36.95-1.08Z"/>
    <path class="cls-1" d="M1401.9,1530.17c15.63,6.28,31.32,15.09,35.58,33,5.47,22.99-3.88,40.55-24.59,51.71,6.81,12.05,15.11,21.16,22.17,31.85,1.89,2.87,3.52,5.55,6.32,6.76,0,.68-.03,1.93,0,2.59l-36.6.24c-.58-.37-1.07-.97-1.7-1.24-5.98-12.13-14.9-22.68-22.79-34.37l-28.4.2-.05,35.51c-11.05,2.41-22.48.48-34.48,1.14-.34-4-.45-6.81-.42-9.88l.83-87.35.6-31.64c7.98-.67,16.65.02,24.71-.07l26.79-.3c6.07-.07,15.9.56,21.53.67M1389.34,1594.02c11.36-1.54,17.03-13.77,15.3-23.08-3.97-21.39-34.86-16.04-52.69-16.84-.75,13.88-.69,26.47,0,40.59,12.67-.67,24.56,1.08,37.39-.67Z"/>
    <path class="cls-1" d="M69.57,1526.37c28.7-.97,62.04,13.32,72.81,41.81,6.99,17.42,6.3,38.06-2.41,54.79-25.21,48.99-107.24,48.38-132.56-.34-23.51-46.85,12.18-94.5,61.89-96.24h.27ZM113.08,1592.64c.13-29.77-32.08-48.59-58.15-34.75-32.8,17.42-25.02,67.67,11.9,73.81,23.75,4.37,46.53-14.54,46.24-38.77v-.29Z"/>
    <path class="cls-1" d="M955.4,1540.74l54.38,115.54c-3.87,1.21-38.81,3.22-36.8-1.4l-9.8-23.66-62.73.15-9.52,22.17c-.39.91-1.09,1.71-1.5,2.6l-35.16.74,58.35-125.05c1.03-2.87,4.07-3.35,7.49-3.3l29,.39c2.26,4.3,4.52,8.06,6.29,11.83ZM951.92,1604.42l-20.18-43.54-19.7,44.39c14.13.03,26.49,1.63,39.88-.85Z"/>
    <g>
      <path class="cls-3" d="M1039.18,1078.45c-.27-1.56-.14-3.11,1.49-4.68,27.06-26.14,52.41-53.05,75.43-82.75,6.52-8.42,12.6-15.86,16.84-25.51.35-.79,1.71-1.68,1.44-2.51-.17-.54-.4-1.1-1.13-1.53-1.22-.71-2.15-.07-3.17,1.18l-13.16,16.13c-2.3,2.82-4.62,5.44-7.96,5.51,67.42-89.78,101.56-176.09,119.71-287.13,8.01-43.32,11.68-86.97,15.33-131.82,2.74-33.71,6.14-65.55,6.41-99.46l-88.86,115.18-9.26,86.12-5.22,34.33c-2.05,2.98-.64,6.99-1.73,10.12-.68,1.96-.67,4.07-1.16,6.02-1.07,4.22-3.24,8.57-3.2,13.01-1.44.1-1.12,2.27-1.15,3.29l-.06,2.57c-.91-.55-1.36,1.07-1.37,1.71l-.1,3.96c-1.08.79-1.25,2.15-1.41,3.39-.93,7.49-4.71,14.29-6.86,22-20.76,74.52-64.9,147.25-117.87,202.88-11.79,12.38-23.23,23.27-35.07,34.31,1.75-3.29,2.37-8.17,5.19-11.43,2.93-3.4,8.36-5.53,7.54-11.02-5.25.95-6.96,4.89-10.81,5l28.76-31.46c24.51-26.81,57.42-72.92,74.38-105.69,12.44-24.03,26.34-56.68,34.25-82.6,17.45-57.21,26.1-126.05,30.37-186.79l84.84-111.75-75.45,4.94,3.42-95-174.91-50.55,41.96-102.56,244.88,72.94.03,54.2c0,13.83-.07,26.94-2.37,40.43l-1.29,38.11-2.51,48.97-1.67,26.3-9.24,113.32c-4.08,50.03-12.91,97.63-24.81,146.54-14.89,61.2-38.75,118.78-72.07,171.85-2.31,3.67-5.31,5.51-7.27,9.8-1.71,3.76-4.41,8.18-6.87,11.76l-8.99,13.15-14.18,19.1c.58-.78-25.08,29.78-24.71,29.38l-15.61,16.8c-7.1,7.64-34.47,37.56-40.8,39.97ZM1252.11,452.34l2.72-62.19,1.71-80.07c-17.83-6.53-34.3-10.68-52.03-16.02l-118.21-35.58-51.91-15.98-30.11,76.75,169.02,50.87-.55,37.94-2.23,49.82,81.6-5.54Z"/>
      <path class="cls-1" d="M1039.18,1078.45c-.61.23-1.24,1.18-1.9,1.18-7.95,0-12.46,12.48-21.76,15.94-1.08.4-1.7,2.33-1.61,3.15.12,1.16,1.7,1.23,2.71.96-1.88,3.26-5.32,6.27-8.57,7.55l2.61-5.52c-5.83,1.3-7.26,5.95-9.41,9.74-2.11,3.73-5.91,8.38-9.72,9.49-.25-1.25-.71-1.74-1.86-1.62-2.68.28-4.42,2.75-3.99,4.48.14.57.91,1.5,1.74.34.34-.47.81-.63,1.57-.96-5.78,7.13-14.54,11-21.65,17.62-1.04.97-2.41.8-3.22.59-1.02-.26-2.13-.8-3.59-.59-.86.12-1.55,1.97-.08,2.92.5.33,1.63-.08,2.21.02-37.04,28.91-75.83,55.82-118.08,77.72l-50.34,26.1-127.84-74.42,65.32-85.39,62.86,35.02,48.35-29.81,61.43-42.69,65.62-54.26c1.32-.7,2.39-1.78,3.08-3.11,1.05-.39,1.35-2.56,2.76-2.78l1.66-1.52c.54-.19.99-1.26,1.56-1.27,3.84-.11,5.55-4.04,10.81-5,.81,5.49-4.61,7.62-7.54,11.02-2.82,3.27-3.44,8.14-5.19,11.43-2.83,5.33-8.4,8.41-13.08,12.84-24.05,22.75-49.38,42.08-76.5,61.25-30.52,21.57-60.76,41.37-94.93,58.4l-56.44-31.14-50.11,64.26c34.7,23.08,69.46,42.42,106.91,60.57,72.2-34.31,141.84-82.75,203.58-132.53,16.8-13.54,30.77-27.94,46.92-42.44,24.31-21.82,43.71-48.2,65.49-71.68,3.34-.06,5.66-2.69,7.96-5.51l13.16-16.13c1.02-1.25,1.96-1.89,3.17-1.18.72.42.95.98,1.13,1.53.27.83-1.09,1.72-1.44,2.51-4.24,9.65-10.31,17.09-16.84,25.51-23.01,29.69-48.37,56.61-75.43,82.75-1.63,1.57-1.76,3.12-1.49,4.68Z"/>
      <path class="cls-3" d="M1037.28,1079.62c-4.41,3.85-7.6,9.73-12.79,13.29-3.19,2.18-5.87,3.29-7.88,6.77-1.01.27-2.59.2-2.71-.96-.08-.82.53-2.74,1.61-3.15,9.3-3.46,13.81-15.95,21.76-15.94Z"/>
      <path class="cls-3" d="M1008.05,1107.23c-2.31.91-3.62,5.61-6.8,4.22,2.14-3.79,3.57-8.45,9.41-9.74l-2.61,5.52Z"/>
      <path class="cls-3" d="M991.53,1120.94c-.54.87-1.91,1.46-2.54,2.24-.76.33-1.23.49-1.57.96-.83,1.16-1.6.23-1.74-.34-.43-1.72,1.31-4.2,3.99-4.48,1.15-.12,1.61.37,1.86,1.62Z"/>
      <path class="cls-1" d="M433.74,521.4c-2.65-1.59-.33-5.14-.95-7.44,2.31,1.76.9,4.98.95,7.44Z"/>
      <path class="cls-3" d="M964.11,1141.39c-.63.6-.78,1.82-1.46,2.35-.58-.11-1.71.3-2.21-.02-1.47-.95-.78-2.79.08-2.92,1.47-.21,2.58.33,3.59.59Z"/>
      <path class="cls-1" d="M430.81,474.55c-2.1-1.63-1.12-4.95-.88-7.32,2.23,1.62.82,4.94.88,7.32Z"/>
      <path class="cls-1" d="M432.37,502.49c-2.06-1.18-.92-4.03-.97-5.98,1.88,1.13,1.17,4.07.97,5.98Z"/>
      <path class="cls-1" d="M435.3,542.03c-2.42-1.09-.53-4.16-1.01-5.98,1.56.94,1.73,4.34,1.01,5.98Z"/>
      <path class="cls-1" d="M895.28,799.62c.85-3.85,3.95-4.81,5.99-7.34-.8,3.11-3.33,5.65-5.99,7.34Z"/>
      <path class="cls-3" d="M969.96,996.01c1.14-.94,1.45-2.51,3.08-3.11-.69,1.33-1.75,2.41-3.08,3.11Z"/>
      <path class="cls-3" d="M975.81,990.12c.66-.1,1.01-1.28,1.66-1.52l-1.66,1.52Z"/>
      <path class="cls-4" d="M1228.66,697.16c-18.15,111.04-52.29,197.35-119.71,287.13-21.79,23.48-41.18,49.86-65.49,71.68-16.16,14.5-30.13,28.89-46.92,42.44-61.74,49.79-131.38,98.22-203.58,132.53-37.45-18.15-72.21-37.48-106.91-60.57l50.11-64.26,56.44,31.14c34.17-17.02,64.42-36.83,94.93-58.4,27.12-19.17,52.45-38.5,76.5-61.25,4.68-4.43,10.25-7.51,13.08-12.84,11.84-11.05,23.29-21.94,35.07-34.31,52.97-55.62,97.11-128.36,117.87-202.88,2.15-7.71,5.93-14.51,6.86-22,.63.48,1.28.25,2.17-.1.69-.26.87-1.07.56-1.86-.19-.49-1.29-.9-1.32-1.43l.1-3.96c.96.52,1.36-1.05,1.37-1.71l.06-2.57c.61.58,1.28.35,2.16-.19.56-.35,1.1-.85.51-1.79-.28-.46-1.01-.89-1.52-1.3-.04-4.44,2.13-8.78,3.2-13.01,2.07.62,3.22-.36,3.08-2.25s.34-3.8-1.92-3.77c1.08-3.13-.33-7.14,1.73-10.12,3.37,2.14,6.24-14.75,6.55-16.99l4.1-29.55c.93-6.68,4.31-10.71,10.57-10.6,6.32.12,7.61,5.12,9.51,10.8,2.12,6.36,6.91,12.19,3.99,19.39-2.5,6.18-7.2,13.65-4.82,20.65,1.52,4.47,3.62,7.52,1.21,12.53-2.49,5.18,7.95,9.94,8.97,9.56,5.4-2.04,13.55-15.66,19.17-19.54,3.59-2.48,9.06,1.22,12.63.73l9.72-1.35Z"/>
      <path class="cls-2" d="M1252.11,452.34l-81.6,5.54,2.23-49.82.55-37.94-169.02-50.87,30.11-76.75,51.91,15.98,118.21,35.58c17.73,5.34,34.19,9.49,52.03,16.02l-1.71,80.07-2.72,62.19Z"/>
      <path class="cls-2" d="M1228.66,697.16l-9.72,1.35c-3.57.49-9.04-3.21-12.63-.73-5.62,3.88-13.77,17.5-19.17,19.54-1.02.39-11.46-4.38-8.97-9.56,2.41-5.01.31-8.06-1.21-12.53-2.38-7,2.31-14.47,4.82-20.65,2.92-7.2-1.87-13.04-3.99-19.39-1.89-5.68-3.18-10.69-9.51-10.8-6.26-.11-9.64,3.92-10.57,10.6l-4.1,29.55c-.31,2.24-3.18,19.13-6.55,16.99l5.22-34.33,9.26-86.12,88.86-115.18c-.27,33.92-3.67,65.75-6.41,99.46-3.65,44.85-7.32,88.5-15.33,131.82Z"/>
      <path class="cls-2" d="M1144.18,717.67c.49-1.95.48-4.06,1.16-6.02,2.26-.02,1.79,1.96,1.92,3.77s-1.01,2.87-3.08,2.25Z"/>
      <path class="cls-2" d="M1139.83,733.96c.02-1.01-.3-3.19,1.15-3.29.5.41,1.23.85,1.52,1.3.59.95.05,1.45-.51,1.79-.87.54-1.55.77-2.16.19Z"/>
      <path class="cls-2" d="M1136.89,745.59c.15-1.24.33-2.59,1.41-3.39.03.53,1.13.94,1.32,1.43.31.79.13,1.6-.56,1.86-.89.34-1.54.58-2.17.1Z"/>
      <path class="cls-2" d="M1138.4,738.24c.02-.64.46-2.26,1.37-1.71-.02.66-.41,2.23-1.37,1.71Z"/>
      <g>
        <path class="cls-3" d="M773.76,947.68c.12,3.29-4.04,4.45-5.74,7.02-2.54,3.85-4.6,6.84-9.27,10.62,1.14-4.39,4.78-7.15,7.55-10.76,2.39-3.13,3.33-6.98,7.47-6.88Z"/>
        <path class="cls-3" d="M901.27,792.28c-2.04,2.53-5.14,3.5-5.99,7.34-.91,4.11-5.69,6.99-8.67,10.11-5.72,6.01-9.06,12.5-13.9,18.55l-47.5,59.49c-14.73,18.45-29.76,39.02-45.6,55.35-1.99.61-4.45,2.84-5.85,4.56-.17-4.49,4.42-7.27,5.98-11.63,7.08-19.83,17.59-14.66,11.19-24.08-4.01,4.63-30.54,36.43-31.41,36.57-.68.1-1.59-.39-2.25-1.03,10.27-14.76,21.96-28.34,33.72-42.9l53.07-65.68,77.51-95.01c.63.16,1.45.23,2.07-.11,1.09-.59.6-2.05.94-2.93.61-1.59,1.84-2.85,2.85-4.18.63.11,1.46.17,2.05-.21.97-.63.78-1.94.95-2.91s1.41-1.78,1.51-2.74c3.03-.82,5.33-3.01,5.75-6.18.05-.36.17-.75.15-1.11,3.05.71,2.57-2.8,3.78-4.3l67.13-82.93,31.47-38.96,41.38-50.62c.6-.74.89-1.98.78-2.51-.16-.72-1.39-.84-2.2-.98l-1.28-.99c-.53-.41-1.45.49-2.01.88-6.99-1.29-13.98-1.27-22.2-1.27l-230.91-.02,21-53.28,42.15-106.06,18.34-47.17,68.92-169.88c10.49-25.86,20.97-49.69,30.03-76.99-17.51,17.53-31.14,35.56-46,53.77l-22.35,27.39-22.12,27.61-24.72,30.89-33.29,41.32-54.68,68.59-136.13,169.68-77.33,96.92-48.79,60.92c-12.74,15.91-25.91,30.88-35.84,47.77-.12.2-2.66,1.17-2.83,2.2-.2,1.2,1.11,1.82,3.03,1.82l258.68.1-21.01,49.22-54.91,125.26c-4.08-1.7-8.12-.12-10.69,1.94-4.35,3.48-2.58,7.98-4.1,12.57l-2.99,9.03c-.84,2.54,3.38,8.57.39,10.57-3.53,2.37-8.74,2.66-9.28,8.24-.64,6.61-7.28,9.69-9.6,15.01l-18.37,42.09c-2.31,5.3-4.56,9.65-6.88,15.96-4.3-5.41,2.87-5.01,5.86-23.21.49-3.02,1.21-6.17,2.93-8.77,4.37.32,3.55-5.63,4.57-8.8,2.24-7.01,5.46-13.48,8.68-20.88l40.85-93.55,7.1-17.77c1.52-3.81,3.41-7.13,5.15-11.07l17.88-40.45,4.02-9.19c2.8-6.4,3.08-12.15,7.53-17.73,4.69-5.88,6.2-13.85,9.92-20.86-2.94-1.73-4.68,2.12-7.2,1.68-1.77-.32-3.07-3.35-6.22-3.36l-101.74-.33-155.69-.92c9-14.73,19.45-27.09,29.9-39.93l17.76-21.83,30.95-39.13c1.63-.36,2.34-1.75,3.22-2.96,2.75-3.77,4.91-8.24,8.28-12.12,2.22-2.55,5.14-4,6.1-6.88,1.6-.38,2.28-1.8,3.2-2.97l41.71-53.26c7.27-9.28,13.92-17.98,21.2-27.07l28.09-35.05,37.02-46.57,44.72-54.81c8.08-9.9,15.56-19.47,23.53-29.33l14.95-18.5,42.54-54.02,26.13-32.72,34.33-43.03,43.84-54.32,52.47-64.78,40.33-50.61c10.43-13.09,22.03-29.25,36.01-42.25l-176.8,447.76-31.31,80.52,253.91.15c5.21,0,9.57-2.8,14.16.29l-212.98,263.56ZM1004.89,87.64c2.07-1.81,2.3-3.22.96-4.05-1.19,1.21-1.95,1.73-2.21,2.22-.43.8.25,2.71,1.24,1.83Z"/>
        <path class="cls-1" d="M685.91,891.91l-93.61,216.68c-.71-.12-2.43-.32-3,.75-.33.63.68,1.76,1.27,2.26-7.86,19.87-17.17,39.27-24.02,60.06-1.07,3.23.33,7.69-1.96,12.05,7.64-7.07,11.2-14.82,17.49-22.46l71.99-87.33,36.67-45.47,66.52-80.93c.66.63,1.57,1.13,2.25,1.03.87-.13,27.4-31.94,31.41-36.57,6.4,9.41-4.11,4.24-11.19,24.08-1.56,4.36-6.15,7.14-5.98,11.63-4.14-.1-5.08,3.75-7.47,6.88-2.76,3.61-6.4,6.38-7.55,10.76,4.67-3.78,6.73-6.76,9.27-10.62,1.7-2.57,5.87-3.74,5.74-7.02,1.41-1.72,3.87-3.95,5.85-4.56-4.29,6.72-24.18,33.07-29.18,36.66-4.37,3.13-7.1,6.62-10.92,11.32l-78.6,96.8-68.22,84.1-74.03,91.22c-2.42,2.98-3.9,5.33-5.41,8.02-4.31,7.7-10.5,14.5-16.89,21.37-2.29-5,2.48-6.49,3.93-9.81l50.5-116.15,18.86-44.25,13.57-30.59,30.15-71.72c4.1-9.76,7.85-18.99,12.93-28.4,1.47-2.72,1.04-6.45,3.96-7.57-2.98,18.2-10.15,17.8-5.86,23.21,2.32-6.3,4.56-10.66,6.88-15.96l18.37-42.09c2.32-5.32,8.96-8.41,9.6-15.01.54-5.58,5.75-5.87,9.28-8.24,2.99-2.01-1.23-8.04-.39-10.57l2.99-9.03c1.52-4.6-.25-9.09,4.1-12.57,2.57-2.06,6.61-3.64,10.69-1.94Z"/>
        <path class="cls-1" d="M633.18,975.35c1.86-2.81,1.94-6.52,4.57-8.8-1.01,3.17-.2,9.11-4.57,8.8Z"/>
        <path class="cls-1" d="M546.64,631.25c.93-1.17,1.61-2.59,3.22-2.96-.89,1.21-1.59,2.6-3.22,2.96Z"/>
        <path class="cls-1" d="M564.24,609.29c.48-1.43,1.85-2.47,3.2-2.97-.92,1.17-1.59,2.59-3.2,2.97Z"/>
        <path class="cls-2" d="M905.25,335.35c-1.36-6.46-6.5,13.35-21,24-4.04,2.97-9.61-.82-13.34.59-4.12,1.55-6.86,4.02-11.84,3.76-4.7-.25-9.15,1.63-12.62,5.76-4.12-5.64,3.67-14.21-1.16-15.94l50.62-85.91c2.86-4.85,6.67-8.69,5.99-14.13l-43.21,68.38-6.82,10.8-44.05,68.9-13.52,21.48-19.89,31.65-103.67,165.43c-4.47,7.14-37.79,24.4-47.15,29.44-16.37,8.81-32.14,17.61-48.97,25.58-2.45,1.16-4.94,1.9-4.4,4.64-10.6,5.08-51.77,29.7-67.26,33.55,9.93-16.89,23.1-31.86,35.84-47.77l48.79-60.92,77.33-96.92,136.13-169.68,54.68-68.59,33.29-41.32,24.72-30.89,22.12-27.61,22.35-27.39c14.86-18.2,28.49-36.24,46-53.77-9.06,27.3-19.54,51.13-30.03,76.99l-68.92,169.88Z"/>
        <path class="cls-2" d="M1076.87,543.15l-.02,1.79c-12.36,8.41-26.36,14.02-39.39,20.77.15-1.71-.87-1.88-2.15-1.79s-1.66,1.88-2.93,2.45l-100.09,44.73c-6.88,3.07-14.53,9.42-22.48,9.45l-171.39.55c-14.36.05-38.56.37-50.97-1.86,1.1-1.52,2.69-2.72,4.93-3.82l79.92-45.32,51.47-28.24,230.91.02c8.22,0,15.21-.02,22.2,1.27Z"/>
        <path class="cls-4" d="M905.25,335.35l-18.34,47.17-42.15,106.06-21,53.28-51.47,28.24-79.92,45.32c-2.24,1.11-3.83,2.3-4.93,3.82-.55-.1-2.57.14-1.98-.95,10.21-18.82,21.13-36.36,32.35-54.93l40.79-67.5,23.19-37.97c11.68-19.13,22.17-38.45,34.5-56.36,1.21-1.76,2.89-1.96,2.88-4.69,0-2.79,2.82-5.14,4.48-7,.46-.56.86-1.16,1.2-1.8v-1.35c.62-.29,1.18-.8,1.41-1.47.15-.45-.16-1.04.05-1.46.62-.39,1.26-.85,1.64-1.49,3.48-5.72,5.56-12.73,10.23-17.46.83-.85,1.68-1.67,1.5-3.02.43-.84,1.15-1.95,1.44-2.83.99-.67,1.52-1.76,1.71-2.92.79-.71,1.4-2.08,2.45-2.53,4.83,1.72-2.96,10.3,1.16,15.94,3.48-4.13,7.92-6.01,12.62-5.76,4.98.26,7.73-2.21,11.84-3.76,3.74-1.41,9.31,2.38,13.34-.59,14.5-10.65,19.64-30.46,21-24ZM861.19,373.55c-4.29-5.62-8.64-2.61-13.09-.11-1.43.8-4.25.48-5.49.84-1.15.34-2.6,3.7-1.06,5.21,6.6,6.48,14.28-1.11,19.64-5.94Z"/>
        <path class="cls-2" d="M937.68,724.67c-.42,3.17-2.71,5.36-5.75,6.18.32-3.15,2.77-5.33,5.75-6.18Z"/>
        <path class="cls-1" d="M941.61,719.27c-1.21,1.5-.72,5.01-3.78,4.3-.18-2.33,1.69-3.72,3.78-4.3Z"/>
        <path class="cls-2" d="M1004.89,87.64c-.99.87-1.68-1.03-1.24-1.83.26-.48,1.01-1.01,2.21-2.22,1.34.83,1.1,2.24-.96,4.05Z"/>
        <path class="cls-2" d="M930.43,733.59c-.17.96.03,2.27-.95,2.91-.59.38-1.42.32-2.05.21.36-.48.12-1.47.49-2.11.48-.84,1.42-1.34,2.51-1.01Z"/>
        <path class="cls-2" d="M924.59,740.89c-.34.88.15,2.34-.94,2.93-.62.34-1.44.28-2.07.11.35-.43.13-1.44.49-2.04.51-.84,1.46-1.27,2.52-1.01Z"/>
        <path class="cls-1" d="M1080.16,543.26c-.58,1.36-2.36,1.02-3.32,1.68l.02-1.79c.56-.39,1.48-1.29,2.01-.88l1.28.99Z"/>
        <path class="cls-2" d="M592.3,1108.59c-.45,1.03-.12,3.05-1.73,3.01-.59-.51-1.61-1.63-1.27-2.26.57-1.08,2.29-.87,3-.75Z"/>
        <path class="cls-4" d="M941.61,719.27c-2.08.58-3.96,1.97-3.78,4.3.03.36-.1.75-.15,1.11-2.98.85-5.43,3.03-5.75,6.18-.1.96-1.34,1.78-1.51,2.74-1.08-.33-2.02.16-2.51,1.01-.37.64-.12,1.63-.49,2.11-1.01,1.32-2.25,2.59-2.85,4.18-1.06-.26-2.01.16-2.52,1.01-.36.59-.13,1.6-.49,2.04l-77.51,95.01-53.07,65.68c-11.77,14.56-23.46,28.14-33.72,42.9l-66.52,80.93-36.67,45.47-71.99,87.33c-6.29,7.63-9.85,15.39-17.49,22.46,2.29-4.35.9-8.81,1.96-12.05,6.85-20.79,16.16-40.18,24.02-60.06,1.61.03,1.28-1.98,1.73-3.01l93.61-216.68,54.91-125.26,21.01-49.22-258.68-.1c-1.93,0-3.23-.62-3.03-1.82.17-1.02,2.72-2,2.83-2.2,15.49-3.85,56.66-28.47,67.26-33.55l101.55-48.64,228.36.46-43.35,71.4c-4.54,5.17-7.62,11.47-10.97,17.45l-1.66,2.97c-.93-.47-1.53,1-1.63,1.72s-.52,1.77-.29,2.43c-7.54,8.76-13.28,19.17-19.71,29.8l-58.53,96.84-52.86,88.01c-7.22,13.55-17.38,24.26-21.83,39.86,11.39-14.14,18.95-28.53,28.6-43.65l116.13-182.12c4.18-6.55,8.03-11.7,10.34-18.27.77-2.19,4.43-3.88,4.1-7.07,2.26-.2,2.64-2.67,3.14-4.5.42-.91,1.47-1.73,1.64-2.83,1.06.62,1.02-.83,1.13-1.51l58.7-91.9c20.69-11.57,40.97-21.24,61.88-32.07l29.83-15.45,32.68-16.95c13.03-6.76,27.03-12.37,39.39-20.77.96-.65,2.73-.32,3.32-1.68.81.14,2.04.26,2.2.98.11.53-.18,1.78-.78,2.51l-41.38,50.62-31.47,38.96-67.13,82.93ZM688.99,984.13c0-.9-.73-1.63-1.63-1.63s-1.63.73-1.63,1.63.73,1.63,1.63,1.63,1.63-.73,1.63-1.63ZM685.9,989.25c0-.4-.33-.73-.73-.73s-.73.33-.73.73.33.73.73.73.73-.33.73-.73ZM678.92,994.71c-.77.78-.78,3.45.39,3.91-.24-.09,3.14-1.75,2.21-3.51-.39-.75-1.64-1.38-2.6-.4ZM677.31,1001.7c0-.51-.42-.93-.93-.93s-.93.42-.93.93.42.93.93.93.93-.42.93-.93ZM674.18,1005.36c0-.4-.33-.73-.73-.73s-.73.33-.73.73.33.73.73.73.73-.33.73-.73Z"/>
        <path class="cls-3" d="M845.27,353.52c-1.04.45-1.66,1.81-2.45,2.53-1,.9-1.3,1.65-1.71,2.92-.29.88-1,1.99-1.44,2.83-.51.99-1.7,1.66-1.5,3.02-4.66,4.74-6.75,11.74-10.23,17.46-.93-.72-1.34.87-1.64,1.49-.21.42.1,1.02-.05,1.46-.59.36-1.06.87-1.41,1.47v1.35c-.5.51-.73,1.28-1.19,1.8-1.66,1.87-4.49,4.21-4.48,7-1.88.74-2.21,2.97-2.88,4.69-12.33,17.92-22.82,37.23-34.5,56.36l-23.19,37.97-40.79,67.5c-11.22,18.57-22.15,36.11-32.35,54.93-.59,1.09,1.43.85,1.98.95,12.42,2.23,36.61,1.9,50.97,1.86l171.39-.55c7.95-.03,15.6-6.38,22.48-9.45l100.09-44.73c1.26-.56,1.59-2.35,2.93-2.45s2.3.08,2.15,1.79l-32.68,16.95-29.83,15.45c-20.91,10.83-41.19,20.5-61.88,32.07l-58.7,91.9c-.31.49-1.04.92-1.13,1.51-.17,1.1-1.23,1.93-1.64,2.83-1.26.86-3.33,2.71-3.14,4.5.33,3.19-3.33,4.88-4.1,7.07-1.17.03-5.02-.54-4.5-2.49.87-3.27,3.33-5.18,2.35-7.97-.23-.65.19-1.74.29-2.43.62-.44,1.25-1.03,1.63-1.72l1.66-2.97c3.13,1.11,12.63-16,10.97-17.45l43.35-71.4-228.36-.46-101.55,48.64c-.53-2.74,1.95-3.48,4.4-4.64,16.82-7.98,32.59-16.77,48.97-25.58,9.36-5.04,42.68-22.3,47.15-29.44l103.67-165.43,19.89-31.65,13.52-21.48,44.05-68.9,6.82-10.8,43.21-68.38c.68,5.44-3.14,9.28-5.99,14.13l-50.62,85.91Z"/>
        <path class="cls-2" d="M842.2,727.54c.98,2.79-1.49,4.7-2.35,7.97-.52,1.94,3.33,2.52,4.5,2.49-2.31,6.58-6.16,11.72-10.34,18.27l-116.13,182.12c-9.64,15.12-17.21,29.52-28.6,43.65,4.45-15.6,14.6-26.31,21.83-39.86l52.86-88.01,58.53-96.84c6.42-10.63,12.17-21.04,19.71-29.8Z"/>
        <path class="cls-2" d="M845.79,720.43c3.35-5.98,6.44-12.28,10.97-17.45,1.66,1.44-7.85,18.56-10.97,17.45Z"/>
        <path class="cls-2" d="M678.92,994.71c.96-.98,2.2-.34,2.6.4.93,1.76-2.45,3.41-2.21,3.51-1.16-.46-1.15-3.13-.39-3.91Z"/>
        <circle class="cls-2" cx="687.36" cy="984.13" r="1.63"/>
        <path class="cls-2" d="M848.45,730.92c-.19-1.79,1.88-3.64,3.14-4.5-.5,1.83-.88,4.3-3.14,4.5Z"/>
        <circle class="cls-2" cx="676.38" cy="1001.7" r=".93"/>
        <circle class="cls-2" cx="673.45" cy="1005.36" r=".73"/>
        <circle class="cls-2" cx="685.16" cy="989.25" r=".73"/>
        <path class="cls-2" d="M853.24,723.59c.09-.6.82-1.03,1.13-1.51-.11.69-.07,2.13-1.13,1.51Z"/>
        <path class="cls-2" d="M842.5,725.11c.11-.72.7-2.19,1.63-1.72-.39.69-1.01,1.27-1.63,1.72Z"/>
        <path class="cls-2" d="M861.19,373.55c-5.36,4.84-13.04,12.43-19.64,5.94-1.54-1.52-.09-4.87,1.06-5.21,1.23-.36,4.06-.04,5.49-.84,4.45-2.5,8.8-5.51,13.09.11Z"/>
        <path class="cls-2" d="M816.29,401.53c.67-1.71,1-3.94,2.88-4.69,0,2.73-1.67,2.93-2.88,4.69Z"/>
        <path class="cls-2" d="M841.11,358.96c.41-1.27.72-2.01,1.71-2.92-.19,1.16-.72,2.25-1.71,2.92Z"/>
        <path class="cls-2" d="M838.17,364.81c-.2-1.35.99-2.03,1.5-3.02.18,1.35-.67,2.17-1.5,3.02Z"/>
        <path class="cls-2" d="M824.84,386.69c.35-.59.82-1.11,1.41-1.47-.23.67-.78,1.18-1.41,1.47Z"/>
        <path class="cls-2" d="M826.3,383.76c.3-.62.72-2.21,1.64-1.49-.39.64-1.03,1.09-1.64,1.49Z"/>
        <path class="cls-2" d="M823.65,389.84c.47-.52.69-1.3,1.2-1.8-.34.64-.74,1.24-1.2,1.8Z"/>
      </g>
      <g>
        <path class="cls-3" d="M442.95,376.59c-6.1-.47-12.19,2.45-18.4,5.36,4.08,12.33.23,26.43,3.68,29.8.03,9.71-.37,19.52,1.06,29.12-2.01,3.34-1.86,8.58.2,11.85.02,4.84.95,9.66.46,14.51-.24,2.37-1.22,5.7.88,7.32l.59,21.96c.05,1.95-1.08,4.8.97,5.98-.41,3.91-.59,7.66.42,11.47.61,2.31-1.7,5.85.95,7.44.09,4.94-.7,9.85.55,14.64.48,1.82-1.42,4.89,1.01,5.98-1.54,3.5.66,6.44,1,10.39,3.27,38.32,6.59,75.6,12.53,113.96l-37.65,47.52-36.53,46.86c-5.02,6.43-8.83,12.79-15.07,18.32-1.72-4.72-3.48-8.92-3.46-13.13.02-3.64.43-7.73-2.7-10.33,0-.48.02-.99-.04-1.46-1.98-16.82-5.84-33.72-10.27-49.92,0-.85-.03-1.75.02-2.59.11-2.08.9-5.04-1.47-6.02-.07-.46-.08-1-.04-1.46.17-1.94.79-4.96-1.39-5.87-3-14.46-4.99-29.04-6.45-44.58l-9.3-98.72-2.66-37.16c-.86-12.1-.51-23.95-2.32-36.26-1.1-7.46-.82-14.45-.96-21.91l-.44-21.97c-.14-7.27,1.68-15.27-1.29-21.96-.69-1.56-.35-4.19-.23-5.86.04-.55,1.36-22.96-.94-20.5-.27-12-.41-24.12-1.35-36.83-1.07-14.6,1.39-28.66-1.6-43.75l106.61-32.31,102.24-30.72,36.33-11.01,212.52-63.47c8.31-2.98,15.21-5.74,23.7-7.39l50.99,16.89-85.36,109.72-50.68,16.42-38.01,11.66-36.28,10.94-127.88,38.96-48.87,14.27c-5.29,1.54-9.86,4.25-15.09,3.85ZM414.51,440.78c-.9-23.58-3.01-46.4-2.41-70.61l90.98-27.12,150.73-45.36,95.48-29.42c6.95-7.55,12.82-14.87,19.14-23.02l50.92-65.77-27.05-8.89-463.34,139.17,1.7,66.08,3.13,80.82,7.68,110.81c4.14,59.81,11.11,118.05,24.9,178.78l65.5-82c3.04-3.8-.46-10.02-.6-14.33l-10.13-97.63-4.88-66.03-1.75-45.49Z"/>
        <path class="cls-1" d="M500.83,1035.06c-29.45-30.73-54.33-64.15-75.53-100.43l-12-20.53c-17.97-30.75-32.38-65.77-43.53-99.71-1.14-3.47-8.78-24.05-8.2-25.69.54-1.51,2.71-1.99,5.11-1.99l102.03-.22c2.11,0,4.7-2.55,6.64-1.45,1.27.72,2.95,2.47,3.56,4.77,3.85,14.47,10.63,26.71,16.68,40.43,20.33,46.05,53.32,90.18,85.93,128.58l-45.08,102.61c-1.04,2.37-3.26,3.07-5.03,3.13s-3.53-1.3-5.06-2.9l-25.5-26.61ZM564.68,960.85c-24.14-28.22-44.18-55.56-62.33-85.74-14.07-23.22-24.42-46.8-34.87-72.51l-86.14.05c17.81,52.18,39.52,101.79,70.17,146.33,23.12,33.59,48.31,64.01,76.94,93.64l36.23-81.76Z"/>
        <path class="cls-1" d="M353.38,754.15c-1.99-1.48-2.24-4.44-2.74-7.35-2.54-14.64-7.41-28.46-7.53-42.57,4.43,16.2,8.29,33.11,10.27,49.92Z"/>
        <path class="cls-1" d="M442.95,376.59c-3.62,3.45-8.85,4.05-14.83,4.4l.1,30.76c-3.44-3.37.4-17.47-3.68-29.8,6.21-2.91,12.3-5.82,18.4-5.36Z"/>
        <path class="cls-1" d="M318.1,427.69c-.69,3.63-3.77-24.86-1.29-21.96,2.96,6.7,1.14,14.69,1.29,21.96Z"/>
        <path class="cls-1" d="M316.58,399.87c-2.1,2.62-.92-19.58-.94-20.5,2.3-2.46.98,19.95.94,20.5Z"/>
        <path class="cls-1" d="M356.11,765.94c-3-2.47-2.67-6.71-2.7-10.33,3.12,2.61,2.72,6.69,2.7,10.33Z"/>
        <path class="cls-1" d="M429.47,452.71c-2.06-3.26-2.21-8.51-.2-11.85.59,3.98.18,7.85.2,11.85Z"/>
        <path class="cls-1" d="M343.12,701.63c-2.05-1.05-1.2-4.07-1.47-6.02,2.37.98,1.58,3.94,1.47,6.02Z"/>
        <path class="cls-1" d="M341.61,694.15c-2.26-.79-.99-3.97-1.39-5.87,2.18.91,1.56,3.93,1.39,5.87Z"/>
        <path class="cls-2" d="M414.51,440.78l1.75,45.49,4.88,66.03,10.13,97.63c.14,4.31,3.63,10.53.6,14.33l-65.5,82c-13.79-60.73-20.76-118.97-24.9-178.78l-7.68-110.81-3.13-80.82-1.7-66.08,463.34-139.17,27.05,8.89-50.92,65.77c-6.31,8.15-12.19,15.47-19.14,23.02l-95.48,29.42-150.73,45.36-90.98,27.12c-.6,24.21,1.5,47.03,2.41,70.61Z"/>
        <path class="cls-4" d="M564.68,960.85l-36.23,81.76c-28.62-29.63-53.82-60.05-76.94-93.64-30.65-44.54-52.35-94.15-70.17-146.33l86.14-.05c10.45,25.71,20.79,49.29,34.87,72.51,18.14,30.18,38.19,57.52,62.33,85.74Z"/>
      </g>
    </g>
  </g>
</svg>